<?xml version="1.0" encoding="UTF-8"?>
<svg width="643.349px" height="450.8379px" viewBox="0 0 643.349 450.8379" version="1.1" xmlns="http://www.w3.org/2000/svg" xmlns:xlink="http://www.w3.org/1999/xlink">
    <title>Group</title>
    <g id="Page-1" stroke="none" stroke-width="1" fill="none" fill-rule="evenodd">
        <g id="Logo_Dedecube" transform="translate(-638.838400, -297.752400)">
            <g id="Group" transform="translate(638.838400, 297.752400)">
                <path d="M18.185,410.3619 C18.185,418.1849 20.041,424.3189 23.758,428.7669 C27.472,433.2159 32.605,435.4389 39.157,435.4389 C41.991,435.4389 44.411,435.3179 46.415,435.0729 C48.418,434.8299 50.056,434.5589 51.329,434.2659 L51.329,390.2709 C49.763,389.1959 47.685,388.1949 45.095,387.2639 C42.504,386.3369 39.743,385.8719 36.81,385.8719 C30.357,385.8719 25.639,388.0709 22.658,392.4699 C19.674,396.8709 18.185,402.8349 18.185,410.3619 L18.185,410.3619 Z M69.073,446.5849 C65.553,447.6619 61.128,448.6379 55.801,449.5179 C50.471,450.3979 44.875,450.8379 39.009,450.8379 C32.947,450.8379 27.521,449.9079 22.732,448.0509 C17.94,446.1949 13.859,443.5309 10.486,440.0589 C7.113,436.5899 4.522,432.3849 2.713,427.4469 C0.904,422.5109 0,416.9619 0,410.8019 C0,404.7419 0.756,399.2419 2.274,394.3039 C3.789,389.3679 6.013,385.1379 8.947,381.6189 C11.879,378.0989 15.447,375.3859 19.652,373.4789 C23.854,371.5729 28.694,370.6199 34.17,370.6199 C37.884,370.6199 41.159,371.0599 43.996,371.9399 C46.831,372.8199 49.275,373.7989 51.329,374.8729 L51.329,338.0629 L69.073,335.1309 L69.073,446.5849 Z" id="Fill-1" fill="#151430"></path>
                <path d="M137.4116,403.0298 C137.4116,400.5868 137.0676,398.2628 136.3856,396.0638 C135.6996,393.8638 134.6986,391.9578 133.3786,390.3438 C132.0586,388.7308 130.4456,387.4618 128.5396,386.5318 C126.6326,385.6028 124.3596,385.1378 121.7206,385.1378 C118.9816,385.1378 116.5876,385.6518 114.5336,386.6778 C112.4806,387.7048 110.7436,389.0498 109.3276,390.7108 C107.9096,392.3748 106.8096,394.2808 106.0276,396.4298 C105.2446,398.5818 104.7086,400.7818 104.4156,403.0298 L137.4116,403.0298 Z M85.9366,410.9488 C85.9366,404.2028 86.9386,398.2888 88.9436,393.2038 C90.9456,388.1218 93.6106,383.8918 96.9356,380.5188 C100.2586,377.1458 104.0716,374.6048 108.3746,372.8928 C112.6756,371.1828 117.0756,370.3268 121.5736,370.3268 C132.1326,370.3268 140.3676,373.6028 146.2836,380.1518 C152.1976,386.7038 155.1556,396.4808 155.1556,409.4818 C155.1556,410.4608 155.1316,411.5598 155.0826,412.7818 C155.0326,414.0058 154.9596,415.1048 154.8626,416.0818 L104.2676,416.0818 C104.7566,422.2408 106.9316,427.0078 110.7946,430.3798 C114.6556,433.7528 120.2536,435.4388 127.5856,435.4388 C131.8876,435.4388 135.8206,435.0498 139.3906,434.2658 C142.9596,433.4848 145.7706,432.6528 147.8236,431.7728 L150.1706,446.2918 C149.1916,446.7818 147.8466,447.2958 146.1376,447.8318 C144.4256,448.3698 142.4716,448.8578 140.2706,449.2978 C138.0716,449.7378 135.6996,450.1038 133.1586,450.3978 C130.6146,450.6908 128.0256,450.8378 125.3866,450.8378 C118.6406,450.8378 112.7736,449.8338 107.7886,447.8318 C102.8026,445.8288 98.6956,443.0428 95.4696,439.4718 C92.2426,435.9048 89.8466,431.6998 88.2836,426.8598 C86.7186,422.0208 85.9366,416.7178 85.9366,410.9488 L85.9366,410.9488 Z" id="Fill-3" fill="#151430"></path>
                <path d="M186.3921,410.3619 C186.3921,418.1849 188.2481,424.3189 191.9651,428.7669 C195.6791,433.2159 200.8121,435.4389 207.3641,435.4389 C210.1981,435.4389 212.6181,435.3179 214.6221,435.0729 C216.6251,434.8299 218.2631,434.5589 219.5361,434.2659 L219.5361,390.2709 C217.9701,389.1959 215.8921,388.1949 213.3021,387.2639 C210.7111,386.3369 207.9501,385.8719 205.0171,385.8719 C198.5641,385.8719 193.8461,388.0709 190.8651,392.4699 C187.8811,396.8709 186.3921,402.8349 186.3921,410.3619 L186.3921,410.3619 Z M237.2801,446.5849 C233.7601,447.6619 229.3351,448.6379 224.0081,449.5179 C218.6781,450.3979 213.0821,450.8379 207.2161,450.8379 C201.1541,450.8379 195.7281,449.9079 190.9391,448.0509 C186.1471,446.1949 182.0661,443.5309 178.6931,440.0589 C175.3201,436.5899 172.7291,432.3849 170.9201,427.4469 C169.1111,422.5109 168.2071,416.9619 168.2071,410.8019 C168.2071,404.7419 168.9631,399.2419 170.4811,394.3039 C171.9961,389.3679 174.2201,385.1379 177.1541,381.6189 C180.0861,378.0989 183.6541,375.3859 187.8591,373.4789 C192.0611,371.5729 196.9011,370.6199 202.3771,370.6199 C206.0911,370.6199 209.3661,371.0599 212.2031,371.9399 C215.0381,372.8199 217.4821,373.7989 219.5361,374.8729 L219.5361,338.0629 L237.2801,335.1309 L237.2801,446.5849 Z" id="Fill-5" fill="#151430"></path>
                <path d="M305.6186,403.0298 C305.6186,400.5868 305.2746,398.2628 304.5926,396.0638 C303.9066,393.8638 302.9056,391.9578 301.5856,390.3438 C300.2656,388.7308 298.6526,387.4618 296.7466,386.5318 C294.8396,385.6028 292.5666,385.1378 289.9276,385.1378 C287.1886,385.1378 284.7946,385.6518 282.7406,386.6778 C280.6876,387.7048 278.9506,389.0498 277.5346,390.7108 C276.1166,392.3748 275.0166,394.2808 274.2346,396.4298 C273.4516,398.5818 272.9156,400.7818 272.6226,403.0298 L305.6186,403.0298 Z M254.1436,410.9488 C254.1436,404.2028 255.1456,398.2888 257.1506,393.2038 C259.1526,388.1218 261.8176,383.8918 265.1426,380.5188 C268.4656,377.1458 272.2786,374.6048 276.5816,372.8928 C280.8826,371.1828 285.2826,370.3268 289.7806,370.3268 C300.3396,370.3268 308.5746,373.6028 314.4906,380.1518 C320.4046,386.7038 323.3626,396.4808 323.3626,409.4818 C323.3626,410.4608 323.3386,411.5598 323.2896,412.7818 C323.2396,414.0058 323.1666,415.1048 323.0696,416.0818 L272.4746,416.0818 C272.9636,422.2408 275.1386,427.0078 279.0016,430.3798 C282.8626,433.7528 288.4606,435.4388 295.7926,435.4388 C300.0946,435.4388 304.0276,435.0498 307.5976,434.2658 C311.1666,433.4848 313.9776,432.6528 316.0306,431.7728 L318.3776,446.2918 C317.3986,446.7818 316.0536,447.2958 314.3446,447.8318 C312.6326,448.3698 310.6786,448.8578 308.4776,449.2978 C306.2786,449.7378 303.9066,450.1038 301.3656,450.3978 C298.8216,450.6908 296.2326,450.8378 293.5936,450.8378 C286.8476,450.8378 280.9806,449.8338 275.9956,447.8318 C271.0096,445.8288 266.9026,443.0428 263.6766,439.4718 C260.4496,435.9048 258.0536,431.6998 256.4906,426.8598 C254.9256,422.0208 254.1436,416.7178 254.1436,410.9488 L254.1436,410.9488 Z" id="Fill-7" fill="#151430"></path>
                <path d="M336.4145,410.6558 C336.4145,404.9868 337.2945,399.6818 339.0545,394.7438 C340.8135,389.8078 343.3305,385.5298 346.6065,381.9118 C349.8815,378.2968 353.8655,375.4598 358.5595,373.4058 C363.2515,371.3528 368.5305,370.3268 374.3965,370.3268 C381.6315,370.3268 388.4765,371.6458 394.9285,374.2858 L391.1155,388.8038 C389.0615,387.9248 386.7385,387.1908 384.1495,386.6048 C381.5585,386.0178 378.7965,385.7248 375.8635,385.7248 C368.9205,385.7248 363.6415,387.9018 360.0255,392.2508 C356.4075,396.6018 354.5995,402.7358 354.5995,410.6558 C354.5995,418.2808 356.3095,424.3188 359.7315,428.7668 C363.1525,433.2168 368.9205,435.4388 377.0365,435.4388 C380.0655,435.4388 383.0495,435.1458 385.9825,434.5588 C388.9155,433.9728 391.4565,433.2398 393.6085,432.3598 L396.1015,447.0248 C394.1445,448.0038 391.1885,448.8838 387.2285,449.6648 C383.2695,450.4458 379.1855,450.8378 374.9835,450.8378 C368.4335,450.8378 362.7385,449.8338 357.8985,447.8318 C353.0595,445.8288 349.0495,443.0428 345.8735,439.4718 C342.6955,435.9048 340.3235,431.6518 338.7615,426.7138 C337.1955,421.7778 336.4145,416.4258 336.4145,410.6558" id="Fill-9" fill="#151430"></path>
                <path d="M471.3305,446.5845 C467.9075,447.4645 463.4595,448.3695 457.9855,449.2975 C452.5095,450.2265 446.4965,450.6905 439.9475,450.6905 C433.7885,450.6905 428.6305,449.8115 424.4765,448.0515 C420.3185,446.2915 416.9965,443.8495 414.5035,440.7185 C412.0105,437.5915 410.2255,433.8515 409.1505,429.4995 C408.0735,425.1505 407.5375,420.3845 407.5375,415.2015 L407.5375,372.2325 L425.2825,372.2325 L425.2825,412.4155 C425.2825,420.6275 426.4775,426.4935 428.8755,430.0135 C431.2695,433.5325 435.4495,435.2925 441.4135,435.2925 C443.5625,435.2925 445.8365,435.1965 448.2325,434.9995 C450.6275,434.8045 452.4125,434.5595 453.5865,434.2665 L453.5865,372.2325 L471.3305,372.2325 L471.3305,446.5845 Z" id="Fill-11" fill="#151430"></path>
                <path d="M543.3354,410.3619 C543.3354,402.8349 541.8444,396.8709 538.8624,392.4699 C535.8794,388.0709 531.1634,385.8719 524.7114,385.8719 C521.7774,385.8719 519.0144,386.3109 516.4254,387.1909 C513.8334,388.0709 511.7554,389.0499 510.1924,390.1249 L510.1924,434.2659 C511.4624,434.5589 513.1004,434.8299 515.1054,435.0729 C517.1074,435.3179 519.5274,435.4389 522.3644,435.4389 C528.9134,435.4389 534.0464,433.2159 537.7634,428.7669 C541.4774,424.3189 543.3354,418.1849 543.3354,410.3619 M561.5204,410.6559 C561.5204,416.8149 560.6144,422.3649 558.8074,427.2999 C556.9964,432.2379 554.4074,436.4659 551.0344,439.9859 C547.6614,443.5059 543.5784,446.1949 538.7894,448.0509 C533.9984,449.9079 528.5714,450.8379 522.5114,450.8379 C516.6454,450.8379 511.0474,450.3979 505.7194,449.5179 C500.3904,448.6379 495.9674,447.6619 492.4474,446.5849 L492.4474,338.0629 L510.1924,335.1309 L510.1924,374.8729 C512.2454,373.7989 514.7614,372.8199 517.7444,371.9399 C520.7264,371.0599 524.0254,370.6199 527.6444,370.6199 C533.0204,370.6199 537.8364,371.5729 542.0894,373.4789 C546.3424,375.3859 549.8844,378.0989 552.7214,381.6189 C555.5564,385.1379 557.7304,389.3679 559.2474,394.3039 C560.7624,399.2419 561.5204,404.6929 561.5204,410.6559" id="Fill-13" fill="#151430"></path>
                <path d="M625.605,403.0298 C625.605,400.5868 625.261,398.2628 624.579,396.0638 C623.893,393.8638 622.892,391.9578 621.572,390.3438 C620.252,388.7308 618.639,387.4618 616.733,386.5318 C614.826,385.6028 612.553,385.1378 609.914,385.1378 C607.175,385.1378 604.781,385.6518 602.727,386.6778 C600.674,387.7048 598.937,389.0498 597.521,390.7108 C596.103,392.3748 595.003,394.2808 594.221,396.4298 C593.438,398.5818 592.902,400.7818 592.609,403.0298 L625.605,403.0298 Z M574.13,410.9488 C574.13,404.2028 575.132,398.2888 577.137,393.2038 C579.139,388.1218 581.804,383.8918 585.129,380.5188 C588.452,377.1458 592.265,374.6048 596.568,372.8928 C600.869,371.1828 605.269,370.3268 609.767,370.3268 C620.326,370.3268 628.561,373.6028 634.477,380.1518 C640.391,386.7038 643.349,396.4808 643.349,409.4818 C643.349,410.4608 643.325,411.5598 643.276,412.7818 C643.226,414.0058 643.153,415.1048 643.056,416.0818 L592.461,416.0818 C592.95,422.2408 595.125,427.0078 598.988,430.3798 C602.849,433.7528 608.447,435.4388 615.779,435.4388 C620.081,435.4388 624.014,435.0498 627.584,434.2658 C631.153,433.4848 633.964,432.6528 636.017,431.7728 L638.364,446.2918 C637.385,446.7818 636.04,447.2958 634.331,447.8318 C632.619,448.3698 630.665,448.8578 628.464,449.2978 C626.265,449.7378 623.893,450.1038 621.352,450.3978 C618.808,450.6908 616.219,450.8378 613.58,450.8378 C606.834,450.8378 600.967,449.8338 595.982,447.8318 C590.996,445.8288 586.889,443.0428 583.663,439.4718 C580.436,435.9048 578.04,431.6998 576.477,426.8598 C574.912,422.0208 574.13,416.7178 574.13,410.9488 L574.13,410.9488 Z" id="Fill-15" fill="#151430"></path>
                <path d="M438.0239,145.146 C438.0239,165.234 434.7809,183.734 428.3829,200.131 C422.0099,216.461 412.9019,230.65 401.3089,242.305 C389.7089,253.965 375.6149,263.137 359.4189,269.564 C345.1589,275.225 329.2109,278.445 311.9999,279.139 L311.9999,117.675 L435.8169,117.675 C437.2819,126.456 438.0239,135.693 438.0239,145.146 L438.0239,145.146 Z M300.9999,114.453 L300.9999,279.291 L205.3259,279.291 L205.3259,18.778 L300.9999,114.453 Z M304.8509,11 C324.7949,11 343.1539,14.273 359.4189,20.727 C375.6199,27.159 389.7139,36.33 401.3089,47.986 C412.8989,59.638 422.0069,73.857 428.3809,90.25 C430.4029,95.453 432.1379,100.974 433.5449,106.675 L308.7769,106.675 L213.1029,11 L304.8509,11 Z M438.6329,86.264 C431.7079,68.451 421.7739,52.962 409.1079,40.229 C396.4409,27.495 381.0879,17.494 363.4769,10.502 C345.9149,3.534 326.1899,0 304.8509,0 L199.8259,0 L199.7039,0.006 C199.3769,0.013 199.0559,0.048 198.7499,0.108 C198.6189,0.135 198.4929,0.174 198.3669,0.215 L198.1699,0.274 C198.0179,0.316 197.8679,0.36 197.7239,0.42 C197.5729,0.482 197.4299,0.561 197.2899,0.64 L197.1079,0.738 C196.9939,0.795 196.8799,0.855 196.7739,0.927 C196.1679,1.332 195.6559,1.844 195.2539,2.445 C195.1819,2.553 195.1229,2.665 195.0649,2.779 L194.9629,2.967 C194.8849,3.106 194.8089,3.245 194.7439,3.402 C194.6819,3.551 194.6379,3.705 194.5949,3.86 L194.5389,4.048 C194.4979,4.171 194.4599,4.295 194.4339,4.425 C194.3619,4.787 194.3259,5.148 194.3259,5.5 L194.3259,284.791 C194.3259,287.823 196.7939,290.291 199.8259,290.291 L304.8509,290.291 C305.1559,290.291 305.4599,290.287 305.7619,290.282 L306.4999,290.291 C306.5839,290.291 306.6659,290.282 306.6989,290.271 C327.3519,290.073 346.4559,286.545 363.4769,279.789 C381.0859,272.8 396.4379,262.799 409.1079,250.062 C421.7729,237.329 431.7069,221.875 438.6309,204.13 C445.5279,186.453 449.0239,166.607 449.0239,145.146 C449.0239,123.817 445.5279,104.006 438.6329,86.264 L438.6329,86.264 Z" id="Fill-17" fill="#61C0C3"></path>
            </g>
        </g>
    </g>
</svg>