<?xml version="1.0" encoding="UTF-8"?>
<svg width="254.698px" height="290.291px" viewBox="0 0 254.698 290.291" version="1.1" xmlns="http://www.w3.org/2000/svg" xmlns:xlink="http://www.w3.org/1999/xlink">
    <title>Fill 17</title>
    <g id="Page-1" stroke="none" stroke-width="1" fill="none" fill-rule="evenodd">
        <g id="Logo_Dedecube" transform="translate(-833.164300, -297.752400)" fill="#61C0C3">
            <path d="M1076.8623,442.8984 C1076.8623,462.9864 1073.6193,481.4864 1067.2213,497.8834 C1060.8483,514.2134 1051.7403,528.4024 1040.1473,540.0574 C1028.5473,551.7174 1014.4533,560.8894 998.2573,567.3164 C983.9973,572.9774 968.0493,576.1974 950.8383,576.8914 L950.8383,415.4274 L1074.6553,415.4274 C1076.1203,424.2084 1076.8623,433.4454 1076.8623,442.8984 L1076.8623,442.8984 Z M939.8383,412.2054 L939.8383,577.0434 L844.1643,577.0434 L844.1643,316.5304 L939.8383,412.2054 Z M943.6893,308.7524 C963.6333,308.7524 981.9923,312.0254 998.2573,318.4794 C1014.4583,324.9114 1028.5523,334.0824 1040.1473,345.7384 C1051.7373,357.3904 1060.8453,371.6094 1067.2193,388.0024 C1069.2413,393.2054 1070.9763,398.7264 1072.3833,404.4274 L947.6153,404.4274 L851.9413,308.7524 L943.6893,308.7524 Z M1077.4713,384.0164 C1070.5463,366.2034 1060.6123,350.7144 1047.9463,337.9814 C1035.2793,325.2474 1019.9263,315.2464 1002.3153,308.2544 C984.7533,301.2864 965.0283,297.7524 943.6893,297.7524 L838.6643,297.7524 L838.5423,297.7584 C838.2153,297.7654 837.8943,297.8004 837.5883,297.8604 C837.4573,297.8874 837.3313,297.9264 837.2053,297.9674 L837.0083,298.0264 C836.8563,298.0684 836.7063,298.1124 836.5623,298.1724 C836.4113,298.2344 836.2683,298.3134 836.1283,298.3924 L835.9463,298.4904 C835.8323,298.5474 835.7183,298.6074 835.6123,298.6794 C835.0063,299.0844 834.4943,299.5964 834.0923,300.1974 C834.0203,300.3054 833.9613,300.4174 833.9033,300.5314 L833.8013,300.7194 C833.7233,300.8584 833.6473,300.9974 833.5823,301.1544 C833.5203,301.3034 833.4763,301.4574 833.4333,301.6124 L833.3773,301.8004 C833.3363,301.9234 833.2983,302.0474 833.2723,302.1774 C833.2003,302.5394 833.1643,302.9004 833.1643,303.2524 L833.1643,582.5434 C833.1643,585.5754 835.6323,588.0434 838.6643,588.0434 L943.6893,588.0434 C943.9943,588.0434 944.2983,588.0394 944.6003,588.0344 L945.3383,588.0434 C945.4223,588.0434 945.5043,588.0344 945.5373,588.0234 C966.1903,587.8254 985.2943,584.2974 1002.3153,577.5414 C1019.9243,570.5524 1035.2763,560.5514 1047.9463,547.8144 C1060.6113,535.0814 1070.5453,519.6274 1077.4693,501.8824 C1084.3663,484.2054 1087.8623,464.3594 1087.8623,442.8984 C1087.8623,421.5694 1084.3663,401.7584 1077.4713,384.0164 L1077.4713,384.0164 Z" id="Fill-17"></path>
        </g>
    </g>
</svg>